<svg version="1.2" xmlns="http://www.w3.org/2000/svg" viewBox="0 0 377 392" width="377" height="392"><style>.a{fill:#0df4fa}.b{fill:#2d8f92}</style><path class="a" d="m253 79l-104 201-75-1 140-278z"/><path class="a" d="m6 358l35-66 197-1 32 68z"/><path class="a" d="m374 385l-80 2-87-189 39-77z"/><path fill-rule="evenodd" d="m21.9 411.8h-18.6v-8.8h47.5v8.8h-18.5v47.2h-10.4zm86.5-8.8v56h-10.4v-24h-28.9v24h-10.4v-56h10.4v23.1h28.9v-23.1zm57.1 47.3v8.7h-42v-56h40.9v8.7h-30.5v14.6h27v8.5h-27v15.5zm29.6-19.7c0-16.8 13.1-29.3 31-29.3 17.8 0 31 12.4 31 29.3 0 17-13.2 29.4-31 29.4-17.9 0-31-12.5-31-29.4zm48.7 0c0-10.7-7.6-18.1-17.7-18.1-10.1 0-17.7 7.4-17.7 18.1 0 10.8 7.6 18.2 17.7 18.2 10.1 0 17.7-7.4 17.7-18.2zm75.2-28.3v56.7h-10.8l-28.2-34.4v34.4h-13v-56.7h10.9l28.1 34.4v-34.4zm57.3 46.2v10.5h-43.9v-56.7h42.9v10.5h-29.8v12.3h26.3v10.2h-26.3v13.2z"/><path  d="m572.2 270h17.1v-77.9h30.6v-14.5h-78.4v14.5h30.7zm126.9-92.4v38.2h-47.7v-38.2h-17.2v92.4h17.2v-39.6h47.7v39.6h17.2v-92.4zm60.5 78v-25.4h44.6v-14.2h-44.6v-24h50.2v-14.4h-67.4v92.4h69.3v-14.4zm151.8 16c29 0 50.5-20.2 50.5-47.8 0-27.6-21.5-47.8-50.5-47.8-29.2 0-50.6 20.4-50.6 47.8 0 27.5 21.4 47.8 50.6 47.8zm0-18.2c-16.5 0-28.9-12-28.9-29.6 0-17.5 12.4-29.5 28.9-29.5 16.5 0 28.9 12 28.9 29.5 0 17.6-12.4 29.6-28.9 29.6zm131.6-75.8v56.1l-45.9-56.1h-17.7v92.4h21.1v-56.1l46.1 56.1h17.5v-92.4zm65.6 75.3v-21.4h42.9v-16.7h-42.9v-20h48.6v-17.2h-69.8v92.4h71.5v-17.1z"/><path class="b" d="m578 275.4c6.9 0 13.1-2.3 17.2-6.9l-3.1-3.1c-3.8 3.9-8.5 5.6-13.9 5.6-11.3 0-19.8-8.3-19.8-19.4 0-11.2 8.5-19.5 19.8-19.5 5.4 0 10.1 1.7 13.9 5.6l3.1-3.2c-4.1-4.5-10.3-6.8-17.1-6.8-14.2 0-24.6 10.1-24.6 23.9 0 13.7 10.4 23.8 24.5 23.8zm28.5-0.4h31.2v-4.3h-26.3v-42.6h-4.9zm59.7 0.4c14 0 24.6-10.1 24.6-23.8 0-13.8-10.6-23.9-24.6-23.9-14.2 0-24.7 10.2-24.7 23.9 0 13.6 10.5 23.8 24.7 23.8zm0-4.4c-11.3 0-19.8-8.3-19.8-19.4 0-11.2 8.5-19.5 19.8-19.5 11.2 0 19.6 8.3 19.6 19.5 0 11.1-8.4 19.4-19.6 19.4zm55.3 4.4c11.9 0 19.2-7 19.2-20.4v-26.9h-4.8v26.7c0 11.1-5.3 16.2-14.4 16.2-9.2 0-14.4-5.1-14.4-16.2v-26.7h-4.9v26.9c0 13.4 7.3 20.4 19.3 20.4zm34.8-0.4h19.1c15 0 25.1-9.6 25.1-23.4 0-13.9-10.1-23.5-25.1-23.5h-19.1zm5-4.3v-38.3h13.8c12.5 0 20.5 7.9 20.5 19.2 0 11.2-8 19.1-20.5 19.1z"/><path  d="m449.1 355h5.2l-21.4-46.9h-4.9l-21.4 46.9h5.1l5.6-12.5h26.2zm-30-16.6l11.3-25.2 11.2 25.2zm81.1 16.6l-11.5-16.1c6.9-2.2 10.8-7.4 10.8-14.7 0-10.1-7.3-16.1-19.2-16.1h-17.5v46.9h4.9v-14.9h12.6c1.3 0 2.6-0.1 3.8-0.2l10.7 15.1zm-20.1-19.1h-12.4v-23.5h12.4c9.4 0 14.4 4.2 14.4 11.8 0 7.3-5 11.7-14.4 11.7zm52.1 19.5c6.9 0 13.1-2.4 17.2-6.9l-3.1-3.2c-3.8 4-8.5 5.7-13.9 5.7-11.3 0-19.8-8.4-19.8-19.5 0-11.1 8.5-19.4 19.8-19.4 5.4 0 10.1 1.7 13.9 5.6l3.1-3.2c-4.1-4.6-10.3-6.8-17.1-6.8-14.2 0-24.6 10.1-24.6 23.8 0 13.8 10.4 23.9 24.5 23.9zm62.8-47.3v20.9h-29.4v-20.9h-4.9v46.9h4.9v-21.7h29.4v21.7h4.9v-46.9zm20.8 46.9h5v-46.9h-5zm30 0h5v-42.6h16.5v-4.3h-38v4.3h16.5zm35-4.3v-17.4h24.3v-4.3h-24.3v-16.7h27.2v-4.2h-32.2v46.9h33.2v-4.3zm60.6 4.7c6.9 0 13.1-2.4 17.3-6.9l-3.2-3.2c-3.8 4-8.5 5.6-13.9 5.6-11.3 0-19.8-8.3-19.8-19.4 0-11.1 8.5-19.4 19.8-19.4 5.4 0 10.1 1.7 13.9 5.5l3.2-3.1c-4.2-4.6-10.4-6.8-17.2-6.8-14.1 0-24.6 10.1-24.6 23.8 0 13.7 10.5 23.9 24.5 23.9zm37-0.4h5v-42.7h16.5v-4.2h-38v4.2h16.5zm48 0.4c12 0 19.2-6.9 19.2-20.4v-26.9h-4.8v26.7c0 11.1-5.2 16.2-14.4 16.2-9.1 0-14.3-5.1-14.3-16.2v-26.7h-5v26.9c0 13.5 7.3 20.4 19.3 20.4zm72.3-0.4l-11.5-16c6.9-2.2 10.8-7.4 10.8-14.8 0-10-7.3-16.1-19.2-16.1h-17.6v46.9h5v-14.8h12.6c1.3 0 2.5-0.1 3.7-0.2l10.8 15zm-20.1-19h-12.4v-23.6h12.4c9.4 0 14.4 4.3 14.4 11.8 0 7.4-5 11.8-14.4 11.8zm36.7 14.8v-17.5h24.2v-4.2h-24.2v-16.7h27.2v-4.3h-32.2v46.9h33.2v-4.2z"/><path fill-rule="evenodd" class="b" d="m37.7 492.3h-9.7l-2.1 4.7h-2l8-17.5h1.9l8 17.5h-2zm-0.7-1.5l-4.2-9.3-4.2 9.3zm29.6 6.2l-4-5.6c-0.4 0.1-0.9 0.1-1.4 0.1h-4.7v5.5h-1.8v-17.5h6.5c4.5 0 7.2 2.3 7.2 6 0 2.8-1.5 4.7-4 5.5l4.2 6zm-0.1-11.5c0-2.8-1.9-4.4-5.4-4.4h-4.6v8.8h4.6c3.5 0 5.4-1.6 5.4-4.4zm33.8 13c-1 1.3-2.5 2-4.2 2-2.1 0-3.8-0.9-6.1-3.3-5.1-0.2-8.8-3.9-8.8-8.9 0-5.1 3.9-8.9 9.2-8.9 5.2 0 9.1 3.7 9.1 8.9 0 4.5-2.9 7.9-7.2 8.7 1.3 1.4 2.6 2 3.8 2 1.3 0 2.4-0.5 3.3-1.6zm-9.9-3c4.2 0 7.3-3.1 7.3-7.2 0-4.2-3.1-7.3-7.3-7.3-4.3 0-7.4 3.1-7.4 7.3 0 4.1 3.1 7.2 7.4 7.2zm23.1-6v-10h1.9v10c0 4.1 1.9 6 5.3 6 3.5 0 5.4-1.9 5.4-6v-10h1.8v10c0 5.1-2.7 7.7-7.2 7.7-4.4 0-7.2-2.6-7.2-7.7zm30-10h1.8v17.5h-1.8zm20.9 1.6h-6.1v-1.6h14.1v1.6h-6.1v15.9h-1.9zm33.4 14.3v1.6h-12.4v-17.5h12v1.6h-10.2v6.2h9.1v1.6h-9.1v6.5zm12.6-7.1c0-5.2 3.9-8.9 9.2-8.9 2.5 0 4.8 0.8 6.4 2.5l-1.2 1.2c-1.4-1.5-3.2-2.1-5.2-2.1-4.2 0-7.4 3.1-7.4 7.3 0 4.1 3.2 7.2 7.4 7.2 2 0 3.8-0.6 5.2-2.1l1.2 1.2c-1.6 1.7-3.9 2.6-6.5 2.6-5.2 0-9.1-3.8-9.1-8.9zm32.7-7.2h-6.2v-1.6h14.2v1.6h-6.2v15.9h-1.8zm20.4 8.4v-10h1.9v10c0 4.1 1.9 6 5.3 6 3.5 0 5.4-1.9 5.4-6v-10h1.8v10c0 5.1-2.7 7.7-7.2 7.7-4.4 0-7.2-2.6-7.2-7.7zm41.9 7.5l-4-5.6c-0.4 0-0.9 0.1-1.4 0.1h-4.7v5.5h-1.8v-17.5h6.5c4.5 0 7.2 2.3 7.2 6 0 2.8-1.5 4.7-4 5.5l4.3 6zm0-11.5c0-2.8-1.8-4.4-5.3-4.4h-4.7v8.8h4.7c3.5 0 5.3-1.6 5.3-4.4zm27.2 6.8h-9.7l-2.1 4.7h-2l8-17.5h1.9l8 17.5h-2zm-0.7-1.4l-4.2-9.4-4.2 9.4zm16 4l0.7-1.4c1.3 1.2 3.5 2.1 5.8 2.1 3.3 0 4.7-1.4 4.7-3.1 0-4.8-10.8-1.8-10.8-8.3 0-2.6 2-4.8 6.5-4.8 1.9 0 4 0.6 5.4 1.5l-0.6 1.5c-1.5-1-3.3-1.4-4.8-1.4-3.2 0-4.7 1.4-4.7 3.1 0 4.8 10.8 1.9 10.8 8.3 0 2.6-2 4.8-6.5 4.8-2.6 0-5.2-0.9-6.5-2.3zm-264 30.5v1.6h-12.4v-17.5h12v1.6h-10.1v6.3h9v1.5h-9v6.5zm29-15.9v17.5h-1.5l-11.3-14.2v14.2h-1.8v-17.5h1.5l11.3 14.2v-14.2zm32.3 0h1.8v15.9h9.8v1.6h-11.6zm35.7 12.9h-9.7l-2.1 4.6h-1.9l8-17.5h1.8l8 17.5h-2zm-0.6-1.6l-4.2-9.4-4.2 9.4zm48.8-11.3v17.5h-1.6l-11.2-14.2v14.2h-1.9v-17.5h1.6l11.2 14.2v-14.2zm15.4 10v-10h1.9v9.9c0 4.2 1.9 6.1 5.3 6.1 3.5 0 5.4-1.9 5.4-6.1v-9.9h1.8v10c0 5-2.7 7.6-7.2 7.6-4.4 0-7.2-2.6-7.2-7.6zm44.6 2.8c0 3-2.2 4.7-6.6 4.7h-8v-17.5h7.5c3.9 0 6.2 1.6 6.2 4.5 0 2-1.1 3.3-2.7 3.9 2.3 0.5 3.6 2 3.6 4.4zm-12.8-11.3v6.3h5.6c2.8 0 4.4-1 4.4-3.1 0-2.1-1.6-3.2-4.4-3.2zm11 11.1c0-2.2-1.7-3.2-4.8-3.2h-6.1v6.5h6.1c3.1 0 4.8-1 4.8-3.3zm28.4 3.3v1.6h-12.3v-17.5h12v1.6h-10.2v6.2h9.1v1.6h-9.1v6.5z"/></svg>