<svg version="1.2" xmlns="http://www.w3.org/2000/svg" viewBox="0 0 372 560" width="372" height="560"><style>.a{fill:#0df4fa}.b{fill:#089ce2}.c{fill:#fff}</style><path class="a" d="m246 79l-104 201-75-1 140-278z"/><path class="a" d="m-1 358l35-66 197-1 32 68z"/><path class="a" d="m367 385l-80 2-87-189 39-77z"/><path class="b" d="m23.7 458h9.8v-44.3h17.4v-8.2h-44.6v8.2h17.4zm72.9-52.5v21.7h-27.2v-21.7h-9.7v52.5h9.7v-22.5h27.2v22.5h9.7v-52.5zm35.1 44.4v-14.5h25.4v-8h-25.4v-13.7h28.6v-8.2h-38.3v52.5h39.4v-8.1zm88.8 9c16.5 0 28.7-11.4 28.7-27.1 0-15.7-12.2-27.1-28.7-27.1-16.6 0-28.8 11.5-28.8 27.1 0 15.6 12.2 27.1 28.8 27.1zm0-10.3c-9.4 0-16.5-6.8-16.5-16.8 0-10 7.1-16.8 16.5-16.8 9.3 0 16.4 6.8 16.4 16.8 0 10-7.1 16.8-16.4 16.8zm75.5-43.1v31.9l-26.1-31.9h-10.1v52.5h12v-31.8l26.2 31.9h10v-52.5zm38 42.7v-12.1h24.4v-9.5h-24.4v-11.4h27.6v-9.8h-39.6v52.5h40.6v-9.7z"/><path class="c" d="m119.3 503.2c4.1 0 7.8-1.4 10.3-4.1l-1.9-1.9c-2.3 2.4-5.1 3.4-8.3 3.4-6.7 0-11.8-5-11.8-11.6 0-6.6 5.1-11.6 11.8-11.6 3.2 0 6 1 8.3 3.3l1.9-1.9c-2.5-2.7-6.2-4-10.3-4-8.4 0-14.6 6-14.6 14.2 0 8.2 6.2 14.2 14.6 14.2zm19.8-0.2h18.6v-2.6h-15.6v-25.4h-3zm38.4 0.2c8.4 0 14.7-6 14.7-14.2 0-8.2-6.3-14.2-14.7-14.2-8.4 0-14.7 6-14.7 14.2 0 8.2 6.3 14.2 14.7 14.2zm0-2.6c-6.7 0-11.8-4.9-11.8-11.6 0-6.7 5.1-11.6 11.8-11.6 6.8 0 11.8 4.9 11.8 11.6 0 6.7-5 11.6-11.8 11.6zm35.8 2.6c7.2 0 11.5-4.1 11.5-12.2v-16h-2.9v15.9c0 6.7-3.1 9.7-8.6 9.7-5.4 0-8.5-3-8.5-9.7v-15.9h-3v16c0 8.1 4.4 12.2 11.5 12.2zm23.6-0.2h11.4c9 0 15-5.8 15-14 0-8.2-6-14-15-14h-11.4zm3-2.6v-22.8h8.3c7.4 0 12.2 4.7 12.2 11.4 0 6.7-4.8 11.4-12.2 11.4zm-209.4 50.6h3.2l-12.8-28h-3l-12.8 28h3.1l3.4-7.5h15.6zm-17.9-9.9l6.7-15 6.7 15zm51.2 9.9l-6.8-9.6c4.1-1.3 6.4-4.4 6.4-8.8 0-6-4.3-9.6-11.4-9.6h-10.5v28h2.9v-8.9h7.6c0.8 0 1.5 0 2.2-0.1l6.4 9zm-12-11.4h-7.4v-14h7.4c5.6 0 8.6 2.5 8.6 7 0 4.4-3 7-8.6 7zm48.5 12.1c-1.5 1.7-3.2 2.5-5.3 2.5-2 0-4-1-6.1-3.2 6.8-1.3 11.6-6.8 11.6-14 0-8.2-6.3-14.2-14.7-14.2-8.5 0-14.7 6.1-14.7 14.2 0 8 6 14 14.2 14.3 3.7 3.8 6.4 5.3 9.7 5.3 2.7 0 5-1.1 6.8-3.2zm-26.4-14.7c0-6.6 5.1-11.6 11.8-11.6 6.8 0 11.8 5 11.8 11.6 0 6.7-5 11.6-11.8 11.6-6.7 0-11.8-4.9-11.8-11.6zm47.6 14.3c7.2 0 11.5-4.2 11.5-12.2v-16.1h-2.9v16c0 6.6-3.1 9.6-8.6 9.6-5.4 0-8.5-3-8.5-9.6v-16h-3v16.1c0 8 4.4 12.2 11.5 12.2zm23.6-0.3h3v-28h-3zm20.8 0h2.9v-25.4h9.9v-2.6h-22.7v2.6h9.9zm23.6-2.6v-10.4h14.5v-2.5h-14.5v-9.9h16.3v-2.6h-19.2v28h19.8v-2.6zm39 2.8c4.1 0 7.8-1.4 10.3-4.1l-1.9-1.9c-2.3 2.4-5.1 3.4-8.3 3.4-6.8 0-11.8-5-11.8-11.6 0-6.6 5-11.6 11.8-11.6 3.2 0 6 1 8.3 3.3l1.9-1.9c-2.5-2.7-6.2-4-10.3-4-8.4 0-14.7 6-14.7 14.2 0 8.2 6.3 14.2 14.7 14.2zm24.9-0.2h2.9v-25.4h9.9v-2.6h-22.7v2.6h9.9zm31.4 0.2c7.2 0 11.5-4.2 11.5-12.2v-16h-2.9v15.9c0 6.6-3.1 9.7-8.6 9.7-5.4 0-8.6-3.1-8.6-9.7v-15.9h-2.9v16c0 8 4.3 12.2 11.5 12.2zm46-0.2l-6.9-9.6c4.1-1.4 6.4-4.4 6.4-8.8 0-6-4.3-9.6-11.4-9.6h-10.5v28h3v-8.9h7.5c0.8 0 1.5-0.1 2.2-0.1l6.4 9zm-11.9-11.4h-7.5v-14.1h7.5c5.6 0 8.5 2.6 8.5 7.1 0 4.4-2.9 7-8.5 7zm24.6 8.8v-10.4h14.5v-2.5h-14.5v-10h16.3v-2.5h-19.2v28h19.8v-2.6z"/></svg>